PathFileType	4	(X/Y/Z)	..\data\2014007\dynamic\2014007_C5_04.trc
DataRate	CameraRate	NumFrames	NumMarkers	Units	OrigDataRate	OrigDataStartFrame	OrigNumFrames
100.000000	100.000000	4	52	mm	100.000000	137	157
Frame#	Time	L_IAS			L_IPS			R_IPS			R_IAS			L_FTC			L_FLE			L_FME			L_FAX			L_TTC			L_FAL			L_TAM			L_FCC			L_FM1			L_FM2			L_FM5			R_FTC			R_FLE			R_FME			R_FAX			R_TTC			R_FAL			R_TAM			R_FCC			R_FM1			R_FM2			R_FM5			CV7			TV10			SXS			SJN			L_SIA			L_SRS			L_SAA			L_SAE			L_HLE			L_HME			L_UOA			L_RSP			L_UHE			L_HM2			L_HM5			R_SIA			R_SRS			R_SAA			R_SAE			R_HLE			R_HME			R_UOA			R_RSP			R_UHE			R_HM2			R_HM5			
		X1	Y1	Z1	X2	Y2	Z2	X3	Y3	Z3	X4	Y4	Z4	X5	Y5	Z5	X6	Y6	Z6	X7	Y7	Z7	X8	Y8	Z8	X9	Y9	Z9	X10	Y10	Z10	X11	Y11	Z11	X12	Y12	Z12	X13	Y13	Z13	X14	Y14	Z14	X15	Y15	Z15	X16	Y16	Z16	X17	Y17	Z17	X18	Y18	Z18	X19	Y19	Z19	X20	Y20	Z20	X21	Y21	Z21	X22	Y22	Z22	X23	Y23	Z23	X24	Y24	Z24	X25	Y25	Z25	X26	Y26	Z26	X27	Y27	Z27	X28	Y28	Z28	X29	Y29	Z29	X30	Y30	Z30	X31	Y31	Z31	X32	Y32	Z32	X33	Y33	Z33	X34	Y34	Z34	X35	Y35	Z35	X36	Y36	Z36	X37	Y37	Z37	X38	Y38	Z38	X39	Y39	Z39	X40	Y40	Z40	X41	Y41	Z41	X42	Y42	Z42	X43	Y43	Z43	X44	Y44	Z44	X45	Y45	Z45	X46	Y46	Z46	X47	Y47	Z47	X48	Y48	Z48	X49	Y49	Z49	X50	Y50	Z50	X51	Y51	Z51	X52	Y52	Z52	

138	1.37	618.7210693359376	919.577819824219	117.1274566650392	410.5010070800782	990.2147216796877	182.6519470214845	407.1797485351563	994.7299804687502	263.3512573242189	586.6632690429689	938.4923095703127	368.0468139648439	559.4412841796876	888.3763427734377	48.75229644775399	503.2605285644532	457.9030151367189	111.9257354736329	472.0785522460939	449.9091796875001	231.9345092773439	475.665008544922	396.9675903320314	107.5412139892579	513.0944824218751	383.3559875488282	175.9025878906251	399.1600646972657	63.2767677307129	140.9910278320313	408.5804443359376	78.0387649536133	222.9796142578126	339.9378051757813	26.93246078491212	181.3855438232422	524.6495361328126	19.52972984313965	228.3409271240236	536.5517578125001	36.09678268432618	177.0561065673829	504.2462463378907	19.90377235412598	123.9374084472657	515.8439941406251	880.080261230469	426.6484375000002	677.1000976562501	488.5215148925782	392.2875061035158	693.4600219726564	486.6116333007814	261.3370361328126	656.8253173828126	422.958221435547	390.9592895507814	718.2700805664064	415.1908264160157	343.0572509765627	577.2510375976564	81.7699661254883	344.0904541015626	604.2532958984376	106.9432067871094	262.1630859375001	525.2396850585939	55.88159179687501	284.336151123047	711.6373901367189	33.76453399658204	280.4715576171877	712.0924682617189	45.45774078369141	329.2368164062502	671.7782592773439	34.15530395507813	367.6435852050782	455.043670654297	1430.406982421875	221.8679199218751	408.172821044922	1196.835083007813	224.7161254882814	652.2443847656251	1182.685668945313	232.0101013183595	584.7013549804689	1354.59033203125	223.7832946777345	401.6159667968751	1215.731689453125	124.5547409057618	420.6958618164064	1355.184326171875	134.4087219238282	455.4843139648439	1360.909912109375	65.42597961425788	506.6215209960939	1364.731567382813	38.80607986450202	511.8479309082032	1040.993408203125	-31.87769889831537	483.4164428710939	1023.037292480469	44.71195602416999	479.2528381347657	1017.927978515625	-5.833224773406925	636.3833007812501	815.5981445312502	0.4331814348698443	600.2106933593751	814.7771606445315	-65.39834594726557	683.5269165039064	735.7465820312501	-11.91792297363273	603.3301391601564	731.2517089843751	-71.46787261962885	385.2987976074219	1223.150634765625	319.1131591796876	414.8536987304688	1350.712890625	317.3311462402345	458.3497009277344	1373.43994140625	385.7622375488283	501.1757812500001	1376.998291015625	408.0089416503908	476.4108276367188	1064.045043945313	502.0993652343752	433.1725463867188	1052.955688476563	428.0639648437502	434.3283996582032	1037.346923828125	479.7281494140627	585.7657470703125	825.3863525390627	475.5185546875002	538.4270629882812	826.6217041015627	539.747985839844	612.5671997070312	746.8831176757814	477.9677124023439	540.8283081054688	749.9274291992189	547.6636352539065	
139	1.38	630.6266479492189	916.8794555664065	117.5580596923829	422.978973388672	988.4315185546877	183.5676422119141	419.9683227539063	992.7968750000002	264.3422241210939	599.6536865234376	937.1750488281252	368.2564086914064	571.7148437500001	886.5456542968752	49.19984054565438	507.2290649414064	457.1072692871095	111.9792251586915	475.6658325195313	449.7307434082032	232.1447753906251	478.8387145996095	396.6788024902345	107.703224182129	516.3848876953126	382.7748107910157	176.0255126953126	399.3528442382814	63.65882873535158	141.4006500244141	408.6902160644532	78.25149536132814	223.3704223632814	340.2173461914063	27.37364196777344	181.9281311035157	524.6333007812501	19.57345390319825	228.3147583007814	536.6347045898439	36.04198074340821	177.0479431152345	504.069061279297	20.00797843933106	123.9970092773438	528.9283447265626	878.283386230469	427.3812561035158	693.6967773437501	487.7945861816407	390.9703674316408	707.1605224609376	485.8600463867189	260.0327453613283	676.8941040039064	421.3822326660157	390.1458435058595	738.2146606445314	417.0228271484376	341.6075134277345	622.6696166992189	75.54110717773439	345.9793395996095	646.6873168945314	101.9305572509766	263.6240234375001	571.5717773437501	46.47225189208985	287.5213012695314	759.0695190429689	35.35559463500977	280.9919433593752	759.3385009765626	47.56957626342774	329.609588623047	720.1991577148439	34.15995788574219	368.7793579101564	468.056854248047	1428.639770507813	222.0992889404298	421.118865966797	1195.053588867188	224.9161682128907	665.2404174804689	1180.734497070313	232.2445526123048	597.6429443359376	1352.758056640625	224.3121185302736	415.0484008789064	1213.894409179688	124.3709945678712	433.8115234375001	1353.349487304688	134.4475860595704	468.8537597656251	1359.021118164063	65.56343841552741	520.0358886718751	1362.994750976563	39.1759223937989	532.8517456054689	1039.964599609375	-33.70359039306635	504.0443420410157	1020.557373046875	42.65156936645515	500.6556701660157	1015.440551757813	-7.867405891418398	664.8872680664064	818.7539062500002	0.1318696439267019	629.3746948242189	816.4976806640627	-65.98950195312494	715.4510498046876	741.0618896484376	-11.93228054046622	635.8400268554689	733.1223144531251	-71.98939514160151	397.9919738769532	1221.101440429688	318.873748779297	427.5137329101563	1348.701049804688	317.1909790039064	470.5629882812501	1371.481079101563	385.838836669922	513.2926025390626	1375.12109375	408.3185119628908	487.1553039550782	1062.497924804688	502.670379638672	444.8882751464844	1051.14013671875	428.138153076172	445.3261108398438	1035.86865234375	479.799530029297	595.8758544921875	823.244323730469	477.9399414062502	547.7800903320312	824.9050903320315	541.6397705078127	622.356201171875	744.6394042968751	481.1281738281252	549.7179565429688	748.2608642578126	549.9954833984377	
140	1.39	642.3435058593751	913.8218994140627	118.0031356811525	435.4302978515626	986.3703613281252	184.6607360839845	432.7843017578126	990.5238037109377	265.5201721191407	612.6801757812501	935.1348876953127	368.7292785644532	583.8447265625001	884.5324707031252	49.68029403686532	511.725555419922	456.2234802246095	112.0913085937501	479.9250793457032	449.4305419921876	232.4275207519532	482.5103454589845	396.2879638671876	107.9252014160157	520.1911010742189	382.0618896484376	176.1712493896485	399.6101379394532	64.07521820068361	141.8664550781251	408.9632568359376	78.5092010498047	223.8125152587892	340.5344238281251	27.94318199157716	182.5580444335938	524.6201171875001	19.62965393066407	228.3065795898439	536.7301635742189	35.99182128906251	177.0540924072266	503.8762512207032	20.15046310424805	124.1081695556641	542.0704956054689	875.9199218750002	428.1173706054689	709.7642211914064	486.4830322265626	389.6364746093752	719.9727172851564	484.2448730468751	258.6672973632814	696.3665161132814	419.5665283203126	389.3682250976565	757.4334106445314	418.499237060547	340.0841369628908	667.8779296875001	70.81372070312501	347.9930419921876	688.8856811523439	98.11357116699222	265.2355346679689	617.7900390625001	38.65129470825196	290.9456176757814	805.7620849609377	38.12894439697266	281.638885498047	805.8258056640627	50.98447799682619	330.0222778320314	767.9480590820314	35.6997413635254	370.0472412109377	481.1164550781251	1426.606201171875	222.3619995117189	434.0953674316407	1193.00244140625	225.2554321289064	678.2932128906251	1178.34423828125	232.5232696533205	610.6417846679689	1350.628662109375	224.8556976318361	428.4960937500001	1211.7236328125	124.3323211669923	446.9535522460939	1351.23193359375	134.5515136718751	482.230194091797	1356.820922851563	65.75179290771491	533.4688110351564	1360.945556640625	39.59422302246101	553.7636718750001	1038.880493164063	-35.39007568359369	524.7205810546876	1017.9736328125	40.74904632568366	522.0406494140626	1012.897033691406	-9.72451591491693	693.1098632812501	822.0401000976565	-0.03990891203275776	658.2243652343751	818.3686523437502	-66.42914581298821	746.9309692382814	746.5557250976564	-11.80090236663809	667.9630737304689	735.2246704101564	-72.30079650878899	410.7926635742188	1218.733520507813	318.7242736816407	440.1948242187501	1346.426391601563	317.1317443847657	482.8446960449219	1369.264892578125	385.9671630859377	525.4937133789064	1373.00439453125	408.6644592285158	498.0939636230469	1060.696411132813	503.2828063964845	456.8357849121094	1049.03125	428.2672424316408	456.5475158691407	1034.12744140625	479.9276733398439	606.1041259765625	820.8311157226565	480.2774963378908	557.504150390625	823.020690917969	543.5498046875002	632.2025146484375	742.1064453125001	484.1846923828127	558.906005859375	746.4221191406251	552.388610839844	
141	1.4	653.9391479492189	910.5040283203127	118.4421768188478	447.8750000000001	984.0610351562502	185.9327697753907	445.6328125000001	987.9495849609377	266.8804016113282	625.7559814453126	932.4065551757815	369.4482727050782	595.8396606445314	882.373718261719	50.18622589111337	516.7469482421876	455.2629394531251	112.2627792358399	484.9090576171876	448.9999084472657	232.7853088378907	486.6800231933595	395.8037414550782	108.2117919921876	524.5096435546876	381.2078247070313	176.3340148925782	399.9371948242189	64.54228973388673	142.3852844238282	409.4273681640626	78.83003234863283	224.3068695068361	340.8825378417969	28.66063117980958	183.2770080566407	524.6365356445314	19.70294952392578	228.3179016113282	536.8540039062501	35.95170974731446	177.0717163085938	503.6800231933595	20.3327751159668	124.2728576660157	555.3156738281251	873.0476684570315	428.8481750488283	725.4309082031251	484.6922607421876	388.3229064941409	732.0808715820314	481.8577880859376	257.287322998047	715.2897949218751	417.5824584960939	388.6468811035159	775.987976074219	419.6451721191407	338.5096130371095	712.3762817382814	67.56258392333986	350.091033935547	730.4462280273439	95.48860931396486	266.9613342285158	663.3803100585939	32.43115997314454	294.527801513672	851.300964355469	41.97087860107423	282.4384765625002	851.109558105469	55.58158493041994	330.4922180175783	814.5245361328127	38.67198944091798	371.4400939941408	494.2220153808595	1424.3369140625	222.6703338623048	447.1057739257814	1190.71435546875	225.7301330566407	691.3885498046876	1175.55859375	232.863967895508	623.7014770507814	1348.234008789063	225.4211425781251	441.9566650390626	1209.263671875	124.4388275146485	460.1277160644532	1348.869262695313	134.7283172607423	495.620819091797	1354.353149414063	66.00050354003913	546.9287109375001	1358.631225585938	40.07360839843757	574.5668945312501	1037.749267578125	-36.89551925659173	545.4169311523439	1015.3291015625	39.05209350585945	543.3666992187501	1010.325988769531	-11.37173271179193	720.9965820312501	825.462341308594	-0.0727561414240908	686.7200927734376	820.4124755859377	-66.71416473388665	777.8916625976565	752.2113037109376	-11.52525615692129	699.6420898437501	737.5881958007814	-72.42839813232415	423.7022399902344	1216.09619140625	318.6881103515626	452.9071960449219	1343.937255859375	317.1751708984376	495.2255554199219	1366.83447265625	386.160858154297	537.8085327148439	1370.686767578125	409.0554809570314	509.2363891601563	1058.672241210938	503.9420166015627	469.0006408691407	1046.677612304688	428.4632568359377	467.9953918457032	1032.162353515625	480.1309509277345	616.4659423828125	818.1854248046877	482.5290527343752	567.5968627929688	820.9948730468752	545.4744873046877	642.1295166015625	739.3245849609376	487.1250305175783	568.4046020507812	744.4394531250001	554.8229980468752	
